<svg width="17" height="17" viewBox="0 0 17 17" fill="none" xmlns="http://www.w3.org/2000/svg">
<path d="M14.5913 16.4923H10.0635C9.63237 16.4923 9.28288 16.1428 9.28288 15.7116V12.5891C9.28288 12.1586 8.93268 11.8084 8.50223 11.8084C8.07179 11.8084 7.72159 12.1586 7.72159 12.5891V15.7116C7.72159 16.1428 7.3721 16.4923 6.94095 16.4923H2.41322C1.12188 16.4923 0.0712891 15.4417 0.0712891 14.1503V7.14825C0.0712891 6.38884 0.441236 5.6744 1.06111 5.23607L7.14774 0.842295C7.15024 0.840461 7.15278 0.838665 7.15535 0.83687C7.95781 0.272074 9.03717 0.2654 9.84912 0.83687C9.85165 0.838665 9.85419 0.840461 9.85673 0.842295L15.9434 5.23611C16.5633 5.67444 16.9332 6.38888 16.9332 7.14829V14.1504C16.9332 15.4417 15.8826 16.4923 14.5913 16.4923ZM10.8442 14.931H14.5913C15.0217 14.931 15.3719 14.5808 15.3719 14.1503V7.14825C15.3719 6.89454 15.248 6.6559 15.0405 6.50988C15.038 6.50809 15.0355 6.50629 15.0329 6.50446L8.9474 2.11146C8.68194 1.92653 8.32464 1.92509 8.05707 2.11146L1.97153 6.50446C1.96903 6.50625 1.9665 6.50809 1.96392 6.50988C1.75646 6.6559 1.63258 6.89454 1.63258 7.14825V14.1503C1.63258 14.5808 1.98277 14.931 2.41322 14.931H6.16031V12.5891C6.16031 11.2977 7.21089 10.2471 8.50223 10.2471C9.79357 10.2471 10.8442 11.2977 10.8442 12.5891V14.931Z" fill="#BFBFBF"/>
</svg>
