<svg width="21" height="19" viewBox="0 0 21 19" fill="none" xmlns="http://www.w3.org/2000/svg">
<path fill-rule="evenodd" clip-rule="evenodd" d="M17.9357 6.14591C17.9357 4.69021 16.756 3.5105 15.3003 3.5105C12.1656 3.5105 5.97667 3.5105 2.84196 3.5105C1.38625 3.5105 0.206543 4.69021 0.206543 6.14591V15.7292C0.206543 17.185 1.38625 18.3647 2.84196 18.3647H15.3003C16.756 18.3647 17.9357 17.185 17.9357 15.7292V6.14591ZM16.4982 6.14591V15.7292C16.4982 16.3905 15.9615 16.9272 15.3003 16.9272C12.1656 16.9272 5.97667 16.9272 2.84196 16.9272C2.18071 16.9272 1.64404 16.3905 1.64404 15.7292V6.14591C1.64404 5.48466 2.18071 4.948 2.84196 4.948H15.3003C15.9615 4.948 16.4982 5.48466 16.4982 6.14591Z" fill="#BFBFBF"/>
<path fill-rule="evenodd" clip-rule="evenodd" d="M3.76292 4.94704L3.80029 4.948L3.83096 4.94416C3.96896 4.92404 4.51904 4.80712 4.51904 4.21679V3.27091C4.51904 2.95275 4.64554 2.64896 4.86979 2.42375C5.095 2.1995 5.39879 2.073 5.71696 2.073H18.1753C18.8365 2.073 19.3732 2.60966 19.3732 3.27091V12.8542C19.3732 13.1724 19.2467 13.4762 19.0225 13.7014C18.7973 13.9257 18.4935 14.0522 18.1753 14.0522H17.217C16.8202 14.0522 16.4982 14.3742 16.4982 14.7709C16.4982 15.1677 16.8202 15.4897 17.217 15.4897H18.1753C18.8739 15.4897 19.5448 15.2117 20.0393 14.7182C20.5328 14.2237 20.8107 13.5529 20.8107 12.8542V3.27091C20.8107 1.81521 19.631 0.635498 18.1753 0.635498C15.0406 0.635498 8.85167 0.635498 5.71696 0.635498C5.01833 0.635498 4.3475 0.913415 3.853 1.40696C3.35946 1.90146 3.08154 2.57229 3.08154 3.27091V4.21679V4.22925C3.08154 4.61354 3.38342 4.92787 3.76292 4.94704Z" fill="#BFBFBF"/>
<path fill-rule="evenodd" clip-rule="evenodd" d="M7.63786 10.698C6.18311 10.698 5.00244 11.8787 5.00244 13.3334C5.00244 14.7882 6.18311 15.9688 7.63786 15.9688C9.09261 15.9688 10.2733 14.7882 10.2733 13.3334C10.2733 11.8787 9.09261 10.698 7.63786 10.698ZM7.63786 12.1355C8.29911 12.1355 8.83577 12.6722 8.83577 13.3334C8.83577 13.9947 8.29911 14.5313 7.63786 14.5313C6.97661 14.5313 6.43994 13.9947 6.43994 13.3334C6.43994 12.6722 6.97661 12.1355 7.63786 12.1355Z" fill="#BFBFBF"/>
<path fill-rule="evenodd" clip-rule="evenodd" d="M10.269 13.3334V7.96764L12.0266 9.13968C12.3563 9.3601 12.8029 9.27002 13.0233 8.94035C13.2437 8.61069 13.1536 8.1641 12.824 7.94369L9.94896 6.02702C9.72854 5.88039 9.44488 5.86602 9.21104 5.99156C8.97721 6.11614 8.83154 6.35956 8.83154 6.62502V13.3334C8.83154 13.7301 9.15354 14.0521 9.55029 14.0521C9.94704 14.0521 10.269 13.7301 10.269 13.3334Z" fill="#BFBFBF"/>
</svg>
